<svg width="18" height="18" viewBox="0 0 18 18" fill="none" xmlns="http://www.w3.org/2000/svg">
<path fill-rule="evenodd" clip-rule="evenodd" d="M5.17647 3.5H12.5882C13.4654 3.5 14.1765 4.17157 14.1765 5V12C14.1765 12.8284 13.4654 13.5 12.5882 13.5H5.17647C4.29931 13.5 3.58824 12.8284 3.58824 12V5C3.58824 4.17157 4.29931 3.5 5.17647 3.5ZM2 5C2 3.34315 3.42215 2 5.17647 2H12.5882C14.3426 2 15.7647 3.34315 15.7647 5V12C15.7647 13.6569 14.3426 15 12.5882 15H5.17647C3.42215 15 2 13.6569 2 12V5ZM5.97059 10.4982C5.53201 10.4982 5.17647 10.834 5.17647 11.2482C5.17647 11.6624 5.53201 11.9982 5.97059 11.9982H8.09022C8.52879 11.9982 8.88433 11.6624 8.88433 11.2482C8.88433 10.834 8.52879 10.4982 8.09022 10.4982H5.97059ZM5.17647 8.49997C5.17647 8.08576 5.53201 7.74997 5.97059 7.74997H11.7961C12.2347 7.74997 12.5902 8.08576 12.5902 8.49997C12.5902 8.91418 12.2347 9.24997 11.7961 9.24997H5.97059C5.53201 9.24997 5.17647 8.91418 5.17647 8.49997ZM5.97059 5.00183C5.53201 5.00183 5.17647 5.33762 5.17647 5.75183C5.17647 6.16604 5.53201 6.50183 5.97059 6.50183H9.67845C10.117 6.50183 10.4726 6.16604 10.4726 5.75183C10.4726 5.33762 10.117 5.00183 9.67845 5.00183H5.97059Z" fill="white"/>
</svg>
