<svg width="136" height="73" viewBox="0 0 136 73" fill="none" xmlns="http://www.w3.org/2000/svg">
<path d="M0.00195312 19.3367V73H114.93L136.002 53.6633V0H21.3678L0.00195312 19.3367Z" fill="white"/>
<path d="M19.006 40.4665V45.8208L22.0369 43.0649H26.5635V49.9941H19.006V62.9862H11.3697V41.3326L19.9507 33.5374H26.5635V40.4665H19.006Z" fill="#151313"/>
<path d="M36.1634 12.504V15.9686H45.4529V25.4174L36.872 33.2127H31.1644V26.3229H37.8167V22.8584H28.5272V13.3308L37.0688 5.57488H45.4529V12.504H36.1634Z" fill="#151313"/>
<path d="M28.1989 40.0726H34.6812V63.5338H28.1989V40.0726Z" fill="#151313"/>
<path d="M48.7165 57.6518V51.8032H42.3011V57.6518H48.7165ZM35.8188 63.5338V52.505L43.103 45.9212H55.1988V56.9499L48.0149 63.5338H35.8188Z" fill="#151313"/>
<path d="M62.8101 63.5338V69.3824H56.3278V52.505L63.6121 45.9212H75.7079V56.9499L68.4905 63.5338H62.8101ZM69.2256 57.6518V51.8032H62.8101V57.6518H69.2256Z" fill="#151313"/>
<path d="M53.5199 32.8998V38.7484H47.0376V21.8711L54.3219 15.2872H66.4177V26.316L59.2003 32.8998H53.5199ZM59.9354 27.0178V21.1692H53.5199V27.0178H59.9354Z" fill="#151313"/>
<path d="M80.4444 28.8225L75.967 32.8998H67.5467V21.9045L74.8309 15.2872H86.9267V32.8998H80.4444V28.8225ZM80.4444 27.0178V21.1692H74.029V27.0178H80.4444Z" fill="#151313"/>
<path d="M88.0557 32.8998V21.9045L95.3065 15.2872H105.03V21.1692H94.538V27.0178H105.03V32.8998H88.0557Z" fill="#151313"/>
<path d="M120.785 27.0178H125.196V32.8998H110.293L105.816 28.8225V21.8711L113.067 15.2872H125.196V22.9071L120.785 27.0178ZM118.714 27.0178V21.1692H112.298V27.0178H118.714Z" fill="#151313"/>
</svg>
