<svg width="50" height="46" viewBox="0 0 50 46" fill="none" xmlns="http://www.w3.org/2000/svg">
<path d="M-0.000381738 16.8994V45.208H31.2699L49.6895 28.3086V0H18.6761L-0.000381738 16.8994Z" fill="white"/>
<path d="M19.262 22.5646H19.1046L18.9881 22.6705L17.0197 24.4599V21.108H23.2189H23.626V20.7008V14.6451V14.238H23.2189H17.4384H17.2811L17.1646 14.3437L9.66377 21.1564L9.53036 21.2776V21.4578V40.382V40.7892H9.9375H16.6126H17.0197V40.382V29.4346H23.2189H23.626V29.0275V22.9717V22.5646H23.2189H19.262ZM40.1378 13.9558V13.5486H39.7306H32.0176V11.335H39.7306H40.1378V10.9279V4.87213V4.46499H39.7306H32.4018H32.2446L32.1281 4.57069L24.6617 11.349L24.5282 11.4702V11.6504V19.9771V20.3842H24.9353H32.6484V22.5978H27.2406H26.8335V23.005V29.0263V29.4335H27.2406H32.2298H32.3871L32.5035 29.3277L40.0044 22.515L40.1378 22.3938V22.2136V13.9558Z" fill="#151313" stroke="white" stroke-width="0.814274"/>
</svg>
