<svg width="38" height="37" viewBox="0 0 38 37" fill="none" xmlns="http://www.w3.org/2000/svg">
<path d="M18.8337 3.08301C10.3237 3.08301 3.41699 9.98967 3.41699 18.4997C3.41699 27.0097 10.3237 33.9163 18.8337 33.9163C27.3437 33.9163 34.2503 27.0097 34.2503 18.4997C34.2503 9.98967 27.3437 3.08301 18.8337 3.08301ZM25.987 13.5663C25.7557 16.0022 24.7537 21.9222 24.2449 24.6509C24.0291 25.8072 23.5974 26.1926 23.1966 26.2388C22.3024 26.3159 21.6241 25.653 20.7607 25.0826C19.4041 24.1884 18.6332 23.6334 17.3228 22.7701C15.7966 21.768 16.7832 21.213 17.662 20.3188C17.8932 20.0876 21.8399 16.4955 21.917 16.1718C21.9277 16.1227 21.9263 16.0718 21.9128 16.0235C21.8994 15.9751 21.8744 15.9307 21.8399 15.8943C21.7474 15.8172 21.6241 15.848 21.5162 15.8634C21.3774 15.8943 19.2191 17.328 15.0103 20.1647C14.3937 20.5809 13.8387 20.7968 13.3453 20.7813C12.7903 20.7659 11.742 20.473 10.9557 20.2109C9.98449 19.9026 9.22908 19.733 9.29074 19.1934C9.32158 18.9159 9.70699 18.6384 10.4316 18.3455C14.9332 16.3876 17.9241 15.0926 19.4195 14.4759C23.7053 12.6876 24.5841 12.3793 25.1699 12.3793C25.2932 12.3793 25.5862 12.4101 25.7712 12.5643C25.9253 12.6876 25.9716 12.8572 25.987 12.9805C25.9716 13.073 26.0024 13.3505 25.987 13.5663Z" fill="white"/>
</svg>
