<svg width="37" height="37" viewBox="0 0 37 37" fill="none" xmlns="http://www.w3.org/2000/svg">
<path d="M6.5675 6.5675C4.625 8.5285 4.625 11.6643 4.625 17.945V19.055C4.625 25.3265 4.625 28.4622 6.5675 30.4325C8.5285 32.375 11.6643 32.375 17.945 32.375H19.055C25.3265 32.375 28.4622 32.375 30.4325 30.4325C32.375 28.4715 32.375 25.3357 32.375 19.055V17.945C32.375 11.6735 32.375 8.53775 30.4325 6.5675C28.4715 4.625 25.3357 4.625 19.055 4.625H17.945C11.6735 4.625 8.53775 4.625 6.5675 6.5675ZM9.3055 13.0702H12.4875C12.5893 18.3612 14.9203 20.5997 16.7703 21.0622V13.0702H19.758V17.6305C21.5802 17.4362 23.5043 15.355 24.1518 13.061H27.1302C26.8872 14.2484 26.402 15.373 25.7049 16.3645C25.0078 17.356 24.1138 18.1932 23.0787 18.8237C24.2341 19.3986 25.2545 20.2119 26.0724 21.2101C26.8904 22.2082 27.4874 23.3684 27.824 24.6142H24.5402C23.8372 22.422 22.0797 20.72 19.758 20.4887V24.6142H19.388C13.061 24.6142 9.4535 20.2852 9.3055 13.0702Z" fill="white"/>
</svg>
